<svg width="508" height="170" viewBox="0 0 508 170" fill="none" xmlns="http://www.w3.org/2000/svg">
<path d="M80.6802 169.427C74.112 169.42 67.5687 168.623 61.1924 167.054C49.3144 164.23 38.2692 158.667 28.9475 150.815C19.6257 142.963 12.288 133.041 7.52601 121.848C2.55966 110.22 0 97.7141 0 85.0788C0 72.4435 2.55966 59.9378 7.52601 48.3094C12.2861 37.1142 19.6229 27.189 28.9448 19.334C38.2667 11.4791 49.3128 5.9142 61.1924 3.08818C73.3396 0.0634545 86.0306 -0.0813512 98.2442 2.66543C110.458 5.4122 121.853 10.9739 131.513 18.9029L200.965 77.9099L222.671 59.2903C239.971 45.1913 269.832 45.4896 286.666 59.8423L307.653 77.8353L377.36 19.3654C386.77 11.2346 398.021 5.49439 410.147 2.63623C422.274 -0.221931 434.916 -0.11293 446.991 2.9539C459.282 5.9584 470.659 11.8797 480.151 20.2119C489.643 28.544 496.967 39.0393 501.497 50.801C510.168 72.8639 510.168 97.3683 501.497 119.431C496.951 131.017 489.654 141.334 480.23 149.503C470.806 157.671 459.535 163.448 447.381 166.338C434.914 169.448 421.882 169.552 409.367 166.64C396.852 163.729 385.216 157.886 375.426 149.599L307.698 91.6508L254.002 136.753L201.055 91.7553L131.603 151.165C117.273 162.95 99.2698 169.407 80.6802 169.427ZM80.6802 11.1746C74.9332 11.2 69.2103 11.9164 63.6359 13.3081C53.351 15.7615 43.7883 20.5833 35.717 27.3854C27.6458 34.1875 21.2914 42.7802 17.165 52.472C12.7532 62.8056 10.4794 73.9182 10.4794 85.1459C10.4794 96.3736 12.7532 107.486 17.165 117.82C21.2894 127.513 27.6431 136.107 35.7147 142.909C43.7863 149.712 53.3501 154.532 63.6359 156.984C74.2191 159.609 85.2742 159.721 95.909 157.311C106.544 154.901 116.46 150.036 124.858 143.109L192.975 84.8177L124.768 26.9148C112.351 16.7379 96.7655 11.1736 80.6802 11.1746ZM382.187 141.617C390.711 148.823 400.842 153.9 411.735 156.425C422.629 158.95 433.971 158.85 444.817 156.133C455.342 153.637 465.102 148.642 473.265 141.575C481.428 134.508 487.751 125.579 491.693 115.552C499.389 95.9584 499.389 74.1991 491.693 54.6055C487.771 44.3977 481.423 35.2874 473.191 28.0538C464.96 20.8203 455.091 15.6789 444.428 13.0694C433.967 10.4203 423.016 10.3327 412.514 12.814C402.011 15.2953 392.269 20.2717 384.12 27.3176L315.763 84.7431L382.187 141.617ZM209.015 84.7729L253.987 122.967L299.603 84.6685L279.831 67.7646C266.774 56.6495 242.744 56.4257 229.417 67.2872L209.015 84.7729Z" fill="#212121"/>
<path d="M105.89 107.892C126.438 107.892 143.096 90.9142 143.096 69.9709C143.096 49.0277 126.438 32.0498 105.89 32.0498C85.3421 32.0498 68.6846 49.0277 68.6846 69.9709C68.6846 90.9142 85.3421 107.892 105.89 107.892Z" fill="#212121"/>
<path d="M403.539 106.461C424.087 106.461 440.744 89.8035 440.744 69.2554C440.744 48.7073 424.087 32.0498 403.539 32.0498C382.991 32.0498 366.333 48.7073 366.333 69.2554C366.333 89.8035 382.991 106.461 403.539 106.461Z" fill="#212121"/>
</svg>
